<svg width="32" height="32" viewBox="0 0 32 32" fill="none" xmlns="http://www.w3.org/2000/svg">
<path d="M30.2002 19.1867L16.0002 29.5067L1.80019 19.1867C1.60983 19.0467 1.46862 18.85 1.39677 18.6249C1.32493 18.3998 1.32612 18.1577 1.40019 17.9333L3.02686 12.8933L6.28019 2.88001C6.31175 2.79842 6.36198 2.72536 6.42686 2.66668C6.53251 2.57017 6.67043 2.51666 6.81353 2.51666C6.95662 2.51666 7.09454 2.57017 7.20019 2.66668C7.2687 2.7329 7.31918 2.8155 7.34686 2.90668L10.6002 12.8933H21.4002L24.6535 2.88001C24.6851 2.79842 24.7353 2.72536 24.8002 2.66668C24.9058 2.57017 25.0438 2.51666 25.1869 2.51666C25.33 2.51666 25.4679 2.57017 25.5735 2.66668C25.642 2.7329 25.6925 2.8155 25.7202 2.90668L28.9735 12.92L30.6669 17.9333C30.7342 18.1647 30.7252 18.4115 30.6411 18.6373C30.5571 18.8631 30.4024 19.0557 30.2002 19.1867V19.1867Z" stroke="white" stroke-width="2" stroke-linecap="round" stroke-linejoin="round"/>
</svg>
